<svg xmlns="http://www.w3.org/2000/svg" viewBox="0 0 120 120" fill="none" aria-hidden="true">
  <rect width="120" height="120" rx="28" fill="#0d1b3d"/>
  <circle cx="60" cy="58" r="48" fill="url(#coding-ai-glow)" opacity="0.55"/>
  <circle cx="60" cy="58" r="44" stroke="rgba(255,255,255,0.18)" stroke-width="1.5"/>
  <!-- Neural nodes -->
  <circle cx="42" cy="38" r="4" fill="#6ee7f9"/>
  <circle cx="60" cy="32" r="4.5" fill="#00b4d8"/>
  <circle cx="78" cy="38" r="4" fill="#6ee7f9"/>
  <path d="M42 38C48 44 52 48 60 50M78 38C72 44 68 48 60 50" stroke="#6ee7f9" stroke-width="2" stroke-linecap="round" opacity="0.85"/>
  <!-- AI chip -->
  <rect x="44" y="52" width="32" height="32" rx="7" fill="url(#coding-ai-chip)" stroke="rgba(255,255,255,0.55)" stroke-width="2"/>
  <rect x="50" y="58" width="20" height="20" rx="4" stroke="rgba(255,255,255,0.35)" stroke-width="1.5"/>
  <path d="M54 64H66M54 68H62M54 72H66" stroke="rgba(255,255,255,0.7)" stroke-width="1.5" stroke-linecap="round"/>
  <!-- Chip pins -->
  <path d="M52 52V48M60 52V46M68 52V48" stroke="#00b4d8" stroke-width="2.5" stroke-linecap="round"/>
  <path d="M52 84V88M60 84V90M68 84V88" stroke="#00b4d8" stroke-width="2.5" stroke-linecap="round"/>
  <path d="M44 62H40M44 70H38M44 78H40" stroke="#00b4d8" stroke-width="2.5" stroke-linecap="round"/>
  <path d="M76 62H80M76 70H82M76 78H80" stroke="#00b4d8" stroke-width="2.5" stroke-linecap="round"/>
  <!-- Code brackets -->
  <path d="M28 54L22 60L28 66" stroke="#fff" stroke-width="3" stroke-linecap="round" stroke-linejoin="round"/>
  <path d="M92 54L98 60L92 66" stroke="#fff" stroke-width="3" stroke-linecap="round" stroke-linejoin="round"/>
  <defs>
    <radialGradient id="coding-ai-glow" cx="50%" cy="38%" r="62%">
      <stop offset="0%" stop-color="#6ee7f9"/>
      <stop offset="42%" stop-color="#00b4d8"/>
      <stop offset="100%" stop-color="#1e3a8a"/>
    </radialGradient>
    <linearGradient id="coding-ai-chip" x1="44" y1="52" x2="76" y2="84" gradientUnits="userSpaceOnUse">
      <stop stop-color="#0a2540"/>
      <stop offset="1" stop-color="#123f73"/>
    </linearGradient>
  </defs>
</svg>
