<svg xmlns="http://www.w3.org/2000/svg" viewBox="0 0 120 120" fill="none" aria-hidden="true">
  <rect width="120" height="120" rx="28" fill="#0d1b3d"/>
  <circle cx="60" cy="60" r="48" fill="url(#iot-glow)" opacity="0.5"/>
  <circle cx="60" cy="60" r="44" stroke="rgba(255,255,255,0.18)" stroke-width="1.5"/>
  <!-- Signal arcs -->
  <path d="M48 36C54 30 66 30 72 36" stroke="#06d6a0" stroke-width="2.5" stroke-linecap="round"/>
  <path d="M44 30C52 22 68 22 76 30" stroke="#6ee7b7" stroke-width="2" stroke-linecap="round" opacity="0.7"/>
  <!-- Central hub -->
  <circle cx="60" cy="58" r="10" fill="url(#iot-hub)" stroke="rgba(255,255,255,0.55)" stroke-width="2"/>
  <circle cx="60" cy="58" r="4" fill="#fff"/>
  <!-- Network connections -->
  <path d="M60 48V38M60 68V78M48 58H38M72 58H82" stroke="#06d6a0" stroke-width="2" stroke-linecap="round" opacity="0.85"/>
  <path d="M52 50L42 42M68 50L78 42M52 66L42 74M68 66L78 74" stroke="rgba(255,255,255,0.45)" stroke-width="1.75" stroke-linecap="round"/>
  <!-- Sensor nodes -->
  <g>
    <circle cx="38" cy="38" r="5" fill="#06d6a0" stroke="#fff" stroke-width="1.5"/>
    <rect x="35" y="35" width="6" height="6" rx="1" fill="#0d1b3d" opacity="0.35"/>
  </g>
  <g>
    <circle cx="82" cy="38" r="5" fill="#06d6a0" stroke="#fff" stroke-width="1.5"/>
    <circle cx="82" cy="38" r="2" fill="#0d1b3d" opacity="0.4"/>
  </g>
  <g>
    <circle cx="38" cy="78" r="5" fill="#06d6a0" stroke="#fff" stroke-width="1.5"/>
    <path d="M36 78H40M38 76V80" stroke="#0d1b3d" stroke-width="1.5" stroke-linecap="round" opacity="0.5"/>
  </g>
  <g>
    <circle cx="82" cy="78" r="5" fill="#06d6a0" stroke="#fff" stroke-width="1.5"/>
    <rect x="79.5" y="76" width="5" height="4" rx="0.5" fill="#0d1b3d" opacity="0.35"/>
  </g>
  <!-- Edge devices -->
  <rect x="34" y="54" width="8" height="8" rx="2" stroke="#fff" stroke-width="1.5" fill="rgba(6,214,160,0.25)"/>
  <rect x="78" y="54" width="8" height="8" rx="2" stroke="#fff" stroke-width="1.5" fill="rgba(6,214,160,0.25)"/>
  <defs>
    <radialGradient id="iot-glow" cx="50%" cy="40%" r="62%">
      <stop offset="0%" stop-color="#6ee7b7"/>
      <stop offset="45%" stop-color="#06d6a0"/>
      <stop offset="100%" stop-color="#1e3a8a"/>
    </radialGradient>
    <linearGradient id="iot-hub" x1="50" y1="48" x2="70" y2="68" gradientUnits="userSpaceOnUse">
      <stop stop-color="#059669"/>
      <stop offset="1" stop-color="#047857"/>
    </linearGradient>
  </defs>
</svg>
